<svg xmlns="http://www.w3.org/2000/svg" viewBox="0 0 109.44 95.85"><defs><style>.cls-1{fill:#fffefb;}</style></defs><g id="Layer_2" data-name="Layer 2"><g id="Layer_1-2" data-name="Layer 1"><path class="cls-1" d="M0,58.21C0,50.4,0,42.58.05,34.76.25,15.85,14.07,1.3,32.93.05,39-.35,41.2,1.64,41.26,7.63c0,1.5,0,3,0,4.49,0,7.54-.52,8.1-8,8.78-5.47.49-10.75,4.71-11.85,9.92-1,4.92-.31,10-.41,14.93,0,2.31,1.6,2.12,3.1,2.12,4.33,0,8.66,0,13,0,6.75.1,10.9,4.07,11,10.85.15,8.81.17,17.64,0,26.45-.13,6.4-4.42,10.5-10.83,10.58q-13.23.15-26.45,0C4.34,95.68.19,91.63.08,85.16-.07,76.18,0,67.2,0,58.21Z"/><path class="cls-1" d="M61.3,57.85c0-8-.08-16,0-24A34.51,34.51,0,0,1,95.07,0c5.31-.09,7.3,1.77,7.4,7,0,1.83,0,3.66,0,5.49,0,7.12-.61,7.75-7.86,8.38A13.58,13.58,0,0,0,82.26,33.7c-.15,3.65.13,7.33-.08,11C82,47.49,83.3,48,85.72,47.92c4.32-.15,8.66-.11,13,0,6.25.13,10.47,4,10.59,10.2q.3,13.72,0,27.45c-.12,6.1-4.39,10.13-10.62,10.22-8.82.13-17.64.11-26.46,0-6.72-.08-10.81-4.18-10.89-11C61.22,75.82,61.3,66.83,61.3,57.85Z"/></g></g></svg>